<mxfile host="app.diagrams.net" modified="2020-09-11T08:00:42.349Z" agent="5.0 (Macintosh; Intel Mac OS X 10_14_6) AppleWebKit/537.36 (KHTML, like Gecko) Chrome/81.0.4044.138 Safari/537.36" etag="P6la8yPL50cDDPl_cfCP" version="13.6.9" type="github">
  <diagram id="5kCHEIIx-SN151SwvPzQ" name="Page-1">
    <mxGraphModel dx="2893" dy="1131" grid="1" gridSize="10" guides="1" tooltips="1" connect="1" arrows="1" fold="1" page="1" pageScale="1" pageWidth="827" pageHeight="1169" math="0" shadow="0">
      <root>
        <mxCell id="0" />
        <mxCell id="1" parent="0" />
        <mxCell id="PKJmyre9kMcEaRqX343v-17" value="ALIYUN" style="points=[[0,0,0],[0.25,0,0],[0.5,0,0],[0.75,0,0],[1,0,0],[1,0.25,0],[1,0.5,0],[1,0.75,0],[1,1,0],[0.75,1,0],[0.5,1,0],[0.25,1,0],[0,1,0],[0,0.75,0],[0,0.5,0],[0,0.25,0]];rounded=1;absoluteArcSize=1;arcSize=2;html=1;strokeColor=none;gradientColor=none;shadow=0;dashed=0;fontSize=12;fontColor=#9E9E9E;align=left;verticalAlign=top;spacing=10;spacingTop=-4;fillColor=#EFEBE9;" parent="1" vertex="1">
          <mxGeometry x="-157.5" y="290" width="207.5" height="470" as="geometry" />
        </mxCell>
        <mxCell id="PKJmyre9kMcEaRqX343v-2" value="AWS" style="points=[[0,0,0],[0.25,0,0],[0.5,0,0],[0.75,0,0],[1,0,0],[1,0.25,0],[1,0.5,0],[1,0.75,0],[1,1,0],[0.75,1,0],[0.5,1,0],[0.25,1,0],[0,1,0],[0,0.75,0],[0,0.5,0],[0,0.25,0]];rounded=1;absoluteArcSize=1;arcSize=2;html=1;strokeColor=none;gradientColor=none;shadow=0;dashed=0;fontSize=12;fontColor=#9E9E9E;align=left;verticalAlign=top;spacing=10;spacingTop=-4;fillColor=#EFEBE9;" parent="1" vertex="1">
          <mxGeometry x="-730" y="290" width="520" height="470" as="geometry" />
        </mxCell>
        <mxCell id="PKJmyre9kMcEaRqX343v-26" style="edgeStyle=orthogonalEdgeStyle;rounded=0;orthogonalLoop=1;jettySize=auto;html=1;exitX=1;exitY=0.5;exitDx=0;exitDy=0;" parent="1" source="PKJmyre9kMcEaRqX343v-9" target="PKJmyre9kMcEaRqX343v-24" edge="1">
          <mxGeometry relative="1" as="geometry" />
        </mxCell>
        <mxCell id="PKJmyre9kMcEaRqX343v-30" value="HTTP POST" style="edgeLabel;html=1;align=center;verticalAlign=middle;resizable=0;points=[];" parent="PKJmyre9kMcEaRqX343v-26" vertex="1" connectable="0">
          <mxGeometry x="0.2317" y="3" relative="1" as="geometry">
            <mxPoint as="offset" />
          </mxGeometry>
        </mxCell>
        <mxCell id="PKJmyre9kMcEaRqX343v-28" style="rounded=0;orthogonalLoop=1;jettySize=auto;html=1;exitX=1;exitY=0.5;exitDx=0;exitDy=0;entryX=0;entryY=1;entryDx=0;entryDy=0;" parent="1" source="PKJmyre9kMcEaRqX343v-9" target="PKJmyre9kMcEaRqX343v-18" edge="1">
          <mxGeometry relative="1" as="geometry" />
        </mxCell>
        <mxCell id="PKJmyre9kMcEaRqX343v-29" value="HTTP POST" style="edgeLabel;html=1;align=center;verticalAlign=middle;resizable=0;points=[];" parent="PKJmyre9kMcEaRqX343v-28" vertex="1" connectable="0">
          <mxGeometry x="0.2616" y="-3" relative="1" as="geometry">
            <mxPoint as="offset" />
          </mxGeometry>
        </mxCell>
        <mxCell id="VEAzBk5qKk5hibjYsEHk-6" style="edgeStyle=none;rounded=0;orthogonalLoop=1;jettySize=auto;html=1;exitX=0;exitY=0;exitDx=0;exitDy=0;entryX=0.5;entryY=1;entryDx=0;entryDy=0;" edge="1" parent="1" source="PKJmyre9kMcEaRqX343v-9" target="PKJmyre9kMcEaRqX343v-22">
          <mxGeometry relative="1" as="geometry" />
        </mxCell>
        <mxCell id="VEAzBk5qKk5hibjYsEHk-7" value="" style="edgeStyle=none;rounded=0;orthogonalLoop=1;jettySize=auto;html=1;" edge="1" parent="1" source="PKJmyre9kMcEaRqX343v-9" target="PKJmyre9kMcEaRqX343v-11">
          <mxGeometry relative="1" as="geometry" />
        </mxCell>
        <mxCell id="PKJmyre9kMcEaRqX343v-9" value="" style="strokeColor=#dddddd;shadow=1;strokeWidth=1;rounded=1;absoluteArcSize=1;arcSize=2;align=left;" parent="1" vertex="1">
          <mxGeometry x="-450" y="500" width="170" height="60" as="geometry" />
        </mxCell>
        <mxCell id="PKJmyre9kMcEaRqX343v-10" value="&lt;font color=&quot;#000000&quot;&gt;MinIO Server&lt;/font&gt;&lt;br&gt;EC2" style="dashed=0;connectable=0;html=1;fillColor=#5184F3;strokeColor=none;shape=mxgraph.gcp2.hexIcon;prIcon=compute_engine;part=1;labelPosition=right;verticalLabelPosition=middle;align=left;verticalAlign=middle;spacingLeft=5;fontColor=#999999;fontSize=12;" parent="PKJmyre9kMcEaRqX343v-9" vertex="1">
          <mxGeometry y="0.5" width="44" height="39" relative="1" as="geometry">
            <mxPoint x="5" y="-19.5" as="offset" />
          </mxGeometry>
        </mxCell>
        <mxCell id="VEAzBk5qKk5hibjYsEHk-9" style="edgeStyle=none;rounded=0;orthogonalLoop=1;jettySize=auto;html=1;exitX=0.5;exitY=1;exitDx=0;exitDy=0;entryX=0.5;entryY=0;entryDx=0;entryDy=0;" edge="1" parent="1" source="PKJmyre9kMcEaRqX343v-11" target="PKJmyre9kMcEaRqX343v-15">
          <mxGeometry relative="1" as="geometry" />
        </mxCell>
        <mxCell id="PKJmyre9kMcEaRqX343v-11" value="" style="strokeColor=#dddddd;shadow=1;strokeWidth=1;rounded=1;absoluteArcSize=1;arcSize=2;align=left;" parent="1" vertex="1">
          <mxGeometry x="-720" y="500" width="170" height="60" as="geometry" />
        </mxCell>
        <mxCell id="PKJmyre9kMcEaRqX343v-12" value="&lt;font color=&quot;#000000&quot;&gt;Portal&amp;nbsp;Server&lt;/font&gt;&lt;br&gt;EC2" style="dashed=0;connectable=0;html=1;fillColor=#5184F3;strokeColor=none;shape=mxgraph.gcp2.hexIcon;prIcon=compute_engine;part=1;labelPosition=right;verticalLabelPosition=middle;align=left;verticalAlign=middle;spacingLeft=5;fontColor=#999999;fontSize=12;" parent="PKJmyre9kMcEaRqX343v-11" vertex="1">
          <mxGeometry y="0.5" width="44" height="39" relative="1" as="geometry">
            <mxPoint x="5" y="-19.5" as="offset" />
          </mxGeometry>
        </mxCell>
        <mxCell id="PKJmyre9kMcEaRqX343v-15" value="" style="strokeColor=#dddddd;shadow=1;strokeWidth=1;rounded=1;absoluteArcSize=1;arcSize=2;align=left;" parent="1" vertex="1">
          <mxGeometry x="-720" y="640" width="170" height="60" as="geometry" />
        </mxCell>
        <mxCell id="PKJmyre9kMcEaRqX343v-16" value="&lt;font color=&quot;#000000&quot;&gt;RDS&lt;/font&gt;&lt;br&gt;Oracle" style="dashed=0;connectable=0;html=1;fillColor=#5184F3;strokeColor=none;shape=mxgraph.gcp2.hexIcon;prIcon=cloud_datastore;part=1;labelPosition=right;verticalLabelPosition=middle;align=left;verticalAlign=middle;spacingLeft=5;fontColor=#999999;fontSize=12;" parent="PKJmyre9kMcEaRqX343v-15" vertex="1">
          <mxGeometry y="0.5" width="44" height="39" relative="1" as="geometry">
            <mxPoint x="5" y="-19.5" as="offset" />
          </mxGeometry>
        </mxCell>
        <mxCell id="PKJmyre9kMcEaRqX343v-27" style="edgeStyle=orthogonalEdgeStyle;rounded=0;orthogonalLoop=1;jettySize=auto;html=1;exitX=0.5;exitY=1;exitDx=0;exitDy=0;entryX=0.5;entryY=0;entryDx=0;entryDy=0;" parent="1" source="PKJmyre9kMcEaRqX343v-18" target="PKJmyre9kMcEaRqX343v-24" edge="1">
          <mxGeometry relative="1" as="geometry" />
        </mxCell>
        <mxCell id="PKJmyre9kMcEaRqX343v-18" value="" style="strokeColor=#dddddd;shadow=1;strokeWidth=1;rounded=1;absoluteArcSize=1;arcSize=2;align=left;" parent="1" vertex="1">
          <mxGeometry x="-122.5" y="340" width="140" height="60" as="geometry" />
        </mxCell>
        <mxCell id="PKJmyre9kMcEaRqX343v-19" value="&lt;font color=&quot;#000000&quot;&gt;VISION&lt;/font&gt;&lt;br&gt;API Gateway" style="dashed=0;connectable=0;html=1;fillColor=#5184F3;strokeColor=none;shape=mxgraph.gcp2.hexIcon;prIcon=api_analytics;part=1;labelPosition=right;verticalLabelPosition=middle;align=left;verticalAlign=middle;spacingLeft=5;fontColor=#999999;fontSize=12;" parent="PKJmyre9kMcEaRqX343v-18" vertex="1">
          <mxGeometry y="0.5" width="44" height="39" relative="1" as="geometry">
            <mxPoint x="5" y="-19.5" as="offset" />
          </mxGeometry>
        </mxCell>
        <mxCell id="PKJmyre9kMcEaRqX343v-36" style="edgeStyle=none;rounded=0;orthogonalLoop=1;jettySize=auto;html=1;exitX=0.5;exitY=0;exitDx=0;exitDy=0;entryX=0.005;entryY=0.63;entryDx=0;entryDy=0;entryPerimeter=0;" parent="1" source="PKJmyre9kMcEaRqX343v-22" target="PKJmyre9kMcEaRqX343v-35" edge="1">
          <mxGeometry relative="1" as="geometry" />
        </mxCell>
        <mxCell id="PKJmyre9kMcEaRqX343v-22" value="" style="strokeColor=#dddddd;shadow=1;strokeWidth=1;rounded=1;absoluteArcSize=1;arcSize=2;align=left;" parent="1" vertex="1">
          <mxGeometry x="-720" y="340" width="170" height="60" as="geometry" />
        </mxCell>
        <mxCell id="PKJmyre9kMcEaRqX343v-23" value="&lt;font color=&quot;#000000&quot;&gt;S3&lt;/font&gt;&lt;br&gt;Object Storage" style="dashed=0;connectable=0;html=1;fillColor=#5184F3;strokeColor=none;shape=mxgraph.gcp2.hexIcon;prIcon=cloud_storage;part=1;labelPosition=right;verticalLabelPosition=middle;align=left;verticalAlign=middle;spacingLeft=5;fontColor=#999999;fontSize=12;" parent="PKJmyre9kMcEaRqX343v-22" vertex="1">
          <mxGeometry y="0.5" width="44" height="39" relative="1" as="geometry">
            <mxPoint x="5" y="-19.5" as="offset" />
          </mxGeometry>
        </mxCell>
        <mxCell id="PKJmyre9kMcEaRqX343v-24" value="" style="strokeColor=#dddddd;shadow=1;strokeWidth=1;rounded=1;absoluteArcSize=1;arcSize=2;align=left;" parent="1" vertex="1">
          <mxGeometry x="-122.5" y="500" width="140" height="60" as="geometry" />
        </mxCell>
        <mxCell id="PKJmyre9kMcEaRqX343v-25" value="&lt;font color=&quot;#000000&quot;&gt;OSS&lt;/font&gt;&lt;br&gt;Object Storage" style="dashed=0;connectable=0;html=1;fillColor=#5184F3;strokeColor=none;shape=mxgraph.gcp2.hexIcon;prIcon=cloud_storage;part=1;labelPosition=right;verticalLabelPosition=middle;align=left;verticalAlign=middle;spacingLeft=5;fontColor=#999999;fontSize=12;" parent="PKJmyre9kMcEaRqX343v-24" vertex="1">
          <mxGeometry y="0.5" width="44" height="39" relative="1" as="geometry">
            <mxPoint x="5" y="-19.5" as="offset" />
          </mxGeometry>
        </mxCell>
        <mxCell id="PKJmyre9kMcEaRqX343v-38" style="edgeStyle=none;rounded=0;orthogonalLoop=1;jettySize=auto;html=1;exitX=0.5;exitY=1;exitDx=0;exitDy=0;exitPerimeter=0;" parent="1" source="PKJmyre9kMcEaRqX343v-35" target="PKJmyre9kMcEaRqX343v-9" edge="1">
          <mxGeometry relative="1" as="geometry" />
        </mxCell>
        <mxCell id="PKJmyre9kMcEaRqX343v-35" value="" style="html=1;dashed=0;whitespace=wrap;fillColor=#2875E2;strokeColor=#ffffff;points=[[0.005,0.63,0],[0.1,0.2,0],[0.9,0.2,0],[0.5,0,0],[0.995,0.63,0],[0.72,0.99,0],[0.5,1,0],[0.28,0.99,0]];shape=mxgraph.kubernetes.icon;prIcon=user;align=left;" parent="1" vertex="1">
          <mxGeometry x="-390" y="130" width="50" height="48" as="geometry" />
        </mxCell>
        <mxCell id="PKJmyre9kMcEaRqX343v-40" value="收费说明&lt;br&gt;&lt;br&gt;&lt;font color=&quot;#1a1a1a&quot;&gt;&lt;span style=&quot;font-size: 14px&quot;&gt;S3：&amp;nbsp; &amp;nbsp;保存费用&amp;nbsp;&lt;/span&gt;&lt;span style=&quot;font-size: 14px ; text-align: center&quot;&gt;GB ¥ 0.1755&amp;nbsp; 查询图片地址请求费用 10000 个 ¥0.0135&amp;nbsp; 增加、复制、列表、请求费用 10000个 ¥0.00405&lt;br&gt;&lt;/span&gt;&lt;span style=&quot;font-size: 14px&quot;&gt;&amp;nbsp; &amp;nbsp; &amp;nbsp; &amp;nbsp; &amp;nbsp; &amp;nbsp;数据传出（用户请求图片资源）GB ¥ 0.933&lt;/span&gt;&lt;br&gt;&lt;br&gt;&lt;span style=&quot;font-size: 14px&quot;&gt;EC2:&amp;nbsp; Linux t3.xlarge(16GiB 内存、4 个 vCPU) 预留实例 年 ¥2016&lt;br&gt;&lt;/span&gt;&lt;br&gt;&lt;font style=&quot;font-size: 14px&quot;&gt;EBS: 存储盘 GB/月 ¥0.664 ，预计100G&lt;br&gt;&lt;/font&gt;&lt;br&gt;&lt;br&gt;用户使用minio server提供的 操作界面，对资源进行操作。&lt;br&gt;操作权限使用minio内置管理后台配置权限（用户 角色&amp;nbsp; 资源 权限）&lt;br&gt;&lt;/font&gt;" style="points=[[0,0,0],[0.25,0,0],[0.5,0,0],[0.75,0,0],[1,0,0],[1,0.25,0],[1,0.5,0],[1,0.75,0],[1,1,0],[0.75,1,0],[0.5,1,0],[0.25,1,0],[0,1,0],[0,0.75,0],[0,0.5,0],[0,0.25,0]];rounded=1;absoluteArcSize=1;arcSize=2;html=1;strokeColor=none;gradientColor=none;shadow=0;dashed=0;fontSize=12;align=left;verticalAlign=top;spacing=10;spacingTop=-4;fillColor=#E0F2F1;fontColor=#0000FF;" parent="1" vertex="1">
          <mxGeometry x="-730" y="800" width="780" height="210" as="geometry" />
        </mxCell>
        <mxCell id="PKJmyre9kMcEaRqX343v-45" value="AWS" style="swimlane;fontColor=#0000FF;align=center;" parent="1" vertex="1">
          <mxGeometry x="270" y="130" width="210" height="820" as="geometry" />
        </mxCell>
        <mxCell id="VEAzBk5qKk5hibjYsEHk-14" style="edgeStyle=none;rounded=0;orthogonalLoop=1;jettySize=auto;html=1;exitX=0.5;exitY=0;exitDx=0;exitDy=0;fontColor=#0000FF;" edge="1" parent="PKJmyre9kMcEaRqX343v-45" source="PKJmyre9kMcEaRqX343v-49" target="VEAzBk5qKk5hibjYsEHk-13">
          <mxGeometry relative="1" as="geometry" />
        </mxCell>
        <mxCell id="VEAzBk5qKk5hibjYsEHk-15" value="get product infor&amp;nbsp;" style="edgeLabel;html=1;align=center;verticalAlign=middle;resizable=0;points=[];fontColor=#0000FF;" vertex="1" connectable="0" parent="VEAzBk5qKk5hibjYsEHk-14">
          <mxGeometry x="0.04" y="1" relative="1" as="geometry">
            <mxPoint as="offset" />
          </mxGeometry>
        </mxCell>
        <mxCell id="PKJmyre9kMcEaRqX343v-49" value="MinIO Server" style="rounded=1;whiteSpace=wrap;html=1;align=center;fontColor=#1A1A1A;" parent="PKJmyre9kMcEaRqX343v-45" vertex="1">
          <mxGeometry x="55" y="150" width="100" height="50" as="geometry" />
        </mxCell>
        <mxCell id="PKJmyre9kMcEaRqX343v-80" style="edgeStyle=orthogonalEdgeStyle;rounded=0;orthogonalLoop=1;jettySize=auto;html=1;fontColor=#0000FF;exitX=0;exitY=0.5;exitDx=0;exitDy=0;entryX=0;entryY=0.5;entryDx=0;entryDy=0;" parent="PKJmyre9kMcEaRqX343v-45" source="PKJmyre9kMcEaRqX343v-53" target="PKJmyre9kMcEaRqX343v-85" edge="1">
          <mxGeometry relative="1" as="geometry">
            <Array as="points">
              <mxPoint x="20" y="270" />
              <mxPoint x="20" y="655" />
            </Array>
            <mxPoint x="110" y="645" as="targetPoint" />
          </mxGeometry>
        </mxCell>
        <mxCell id="PKJmyre9kMcEaRqX343v-81" value="NO" style="edgeLabel;html=1;align=center;verticalAlign=middle;resizable=0;points=[];fontColor=#0000FF;" parent="PKJmyre9kMcEaRqX343v-80" vertex="1" connectable="0">
          <mxGeometry x="-0.1143" y="2" relative="1" as="geometry">
            <mxPoint as="offset" />
          </mxGeometry>
        </mxCell>
        <mxCell id="PKJmyre9kMcEaRqX343v-53" value="need process" style="rhombus;whiteSpace=wrap;html=1;rounded=1;fontColor=#1A1A1A;" parent="PKJmyre9kMcEaRqX343v-45" vertex="1">
          <mxGeometry x="55" y="245" width="100" height="50" as="geometry" />
        </mxCell>
        <mxCell id="PKJmyre9kMcEaRqX343v-54" value="" style="edgeStyle=none;rounded=0;orthogonalLoop=1;jettySize=auto;html=1;fontColor=#0000FF;" parent="PKJmyre9kMcEaRqX343v-45" source="PKJmyre9kMcEaRqX343v-49" target="PKJmyre9kMcEaRqX343v-53" edge="1">
          <mxGeometry relative="1" as="geometry" />
        </mxCell>
        <mxCell id="VEAzBk5qKk5hibjYsEHk-16" style="edgeStyle=none;rounded=0;orthogonalLoop=1;jettySize=auto;html=1;exitX=0.5;exitY=1;exitDx=0;exitDy=0;fontColor=#0000FF;" edge="1" parent="PKJmyre9kMcEaRqX343v-45" source="PKJmyre9kMcEaRqX343v-67" target="PKJmyre9kMcEaRqX343v-71">
          <mxGeometry relative="1" as="geometry" />
        </mxCell>
        <mxCell id="PKJmyre9kMcEaRqX343v-67" value="PUT IMAGE" style="rounded=1;whiteSpace=wrap;html=1;align=center;fontColor=#1A1A1A;" parent="PKJmyre9kMcEaRqX343v-45" vertex="1">
          <mxGeometry x="55" y="430" width="100" height="50" as="geometry" />
        </mxCell>
        <mxCell id="VEAzBk5qKk5hibjYsEHk-17" style="edgeStyle=none;rounded=0;orthogonalLoop=1;jettySize=auto;html=1;exitX=0.5;exitY=1;exitDx=0;exitDy=0;entryX=0.5;entryY=0;entryDx=0;entryDy=0;fontColor=#0000FF;" edge="1" parent="PKJmyre9kMcEaRqX343v-45" source="PKJmyre9kMcEaRqX343v-71" target="PKJmyre9kMcEaRqX343v-85">
          <mxGeometry relative="1" as="geometry" />
        </mxCell>
        <mxCell id="PKJmyre9kMcEaRqX343v-71" value="Image Process" style="rounded=1;whiteSpace=wrap;html=1;align=center;fontColor=#1A1A1A;" parent="PKJmyre9kMcEaRqX343v-45" vertex="1">
          <mxGeometry x="55" y="530" width="100" height="50" as="geometry" />
        </mxCell>
        <mxCell id="PKJmyre9kMcEaRqX343v-85" value="S3" style="rounded=1;whiteSpace=wrap;html=1;align=center;fontColor=#1A1A1A;" parent="PKJmyre9kMcEaRqX343v-45" vertex="1">
          <mxGeometry x="55" y="650" width="100" height="50" as="geometry" />
        </mxCell>
        <mxCell id="VEAzBk5qKk5hibjYsEHk-13" value="Portal Server" style="rounded=1;whiteSpace=wrap;html=1;align=center;fontColor=#1A1A1A;" vertex="1" parent="PKJmyre9kMcEaRqX343v-45">
          <mxGeometry x="55" y="50" width="100" height="50" as="geometry" />
        </mxCell>
        <mxCell id="PKJmyre9kMcEaRqX343v-46" value="ALIYUN" style="swimlane;fontColor=#0000FF;align=center;" parent="1" vertex="1">
          <mxGeometry x="480" y="130" width="200" height="820" as="geometry" />
        </mxCell>
        <mxCell id="PKJmyre9kMcEaRqX343v-61" value="SDK&lt;br&gt;（AK SK）" style="rounded=1;whiteSpace=wrap;html=1;align=center;fontColor=#1A1A1A;" parent="PKJmyre9kMcEaRqX343v-46" vertex="1">
          <mxGeometry x="70" y="340" width="100" height="50" as="geometry" />
        </mxCell>
        <mxCell id="PKJmyre9kMcEaRqX343v-55" value="VISION API" style="rounded=1;whiteSpace=wrap;html=1;align=center;fontColor=#1A1A1A;" parent="PKJmyre9kMcEaRqX343v-46" vertex="1">
          <mxGeometry x="70" y="530" width="100" height="50" as="geometry" />
        </mxCell>
        <mxCell id="PKJmyre9kMcEaRqX343v-69" value="TEMP Bucket" style="rounded=1;whiteSpace=wrap;html=1;align=center;fontColor=#1A1A1A;" parent="PKJmyre9kMcEaRqX343v-46" vertex="1">
          <mxGeometry x="70" y="430" width="100" height="50" as="geometry" />
        </mxCell>
        <mxCell id="PKJmyre9kMcEaRqX343v-52" value="PUT/DELETE/LIST IMAGE" style="edgeStyle=none;rounded=0;orthogonalLoop=1;jettySize=auto;html=1;fontColor=#0000FF;" parent="1" source="PKJmyre9kMcEaRqX343v-47" target="PKJmyre9kMcEaRqX343v-49" edge="1">
          <mxGeometry relative="1" as="geometry" />
        </mxCell>
        <mxCell id="PKJmyre9kMcEaRqX343v-47" value="" style="html=1;dashed=0;whitespace=wrap;fillColor=#2875E2;strokeColor=#ffffff;points=[[0.005,0.63,0],[0.1,0.2,0],[0.9,0.2,0],[0.5,0,0],[0.995,0.63,0],[0.72,0.99,0],[0.5,1,0],[0.28,0.99,0]];shape=mxgraph.kubernetes.icon;prIcon=user;align=left;" parent="1" vertex="1">
          <mxGeometry x="80" y="280" width="50" height="50" as="geometry" />
        </mxCell>
        <mxCell id="PKJmyre9kMcEaRqX343v-64" style="edgeStyle=none;rounded=0;orthogonalLoop=1;jettySize=auto;html=1;exitX=1;exitY=0.5;exitDx=0;exitDy=0;fontColor=#1A1A1A;" parent="1" source="PKJmyre9kMcEaRqX343v-59" target="PKJmyre9kMcEaRqX343v-61" edge="1">
          <mxGeometry relative="1" as="geometry" />
        </mxCell>
        <mxCell id="PKJmyre9kMcEaRqX343v-66" value="Valid SDK" style="edgeLabel;html=1;align=center;verticalAlign=middle;resizable=0;points=[];fontColor=#1A1A1A;" parent="PKJmyre9kMcEaRqX343v-64" vertex="1" connectable="0">
          <mxGeometry x="0.136" y="-2" relative="1" as="geometry">
            <mxPoint as="offset" />
          </mxGeometry>
        </mxCell>
        <mxCell id="PKJmyre9kMcEaRqX343v-68" style="edgeStyle=orthogonalEdgeStyle;rounded=0;orthogonalLoop=1;jettySize=auto;html=1;exitX=0.5;exitY=1;exitDx=0;exitDy=0;entryX=0.5;entryY=0;entryDx=0;entryDy=0;fontColor=#1A1A1A;" parent="1" source="PKJmyre9kMcEaRqX343v-59" target="PKJmyre9kMcEaRqX343v-67" edge="1">
          <mxGeometry relative="1" as="geometry" />
        </mxCell>
        <mxCell id="PKJmyre9kMcEaRqX343v-70" value="&lt;span class=&quot;tlid-translation translation&quot; lang=&quot;en&quot;&gt;Original Image&lt;/span&gt;" style="edgeStyle=orthogonalEdgeStyle;rounded=0;orthogonalLoop=1;jettySize=auto;html=1;exitX=1;exitY=0.5;exitDx=0;exitDy=0;fontColor=#0000FF;" parent="1" source="PKJmyre9kMcEaRqX343v-67" target="PKJmyre9kMcEaRqX343v-69" edge="1">
          <mxGeometry relative="1" as="geometry" />
        </mxCell>
        <mxCell id="PKJmyre9kMcEaRqX343v-72" style="edgeStyle=orthogonalEdgeStyle;rounded=0;orthogonalLoop=1;jettySize=auto;html=1;exitX=1;exitY=0.5;exitDx=0;exitDy=0;fontColor=#1A1A1A;" parent="1" source="PKJmyre9kMcEaRqX343v-71" target="PKJmyre9kMcEaRqX343v-55" edge="1">
          <mxGeometry relative="1" as="geometry" />
        </mxCell>
        <mxCell id="PKJmyre9kMcEaRqX343v-77" style="edgeStyle=orthogonalEdgeStyle;rounded=0;orthogonalLoop=1;jettySize=auto;html=1;exitX=0.5;exitY=1;exitDx=0;exitDy=0;fontColor=#1A1A1A;entryX=0.5;entryY=0;entryDx=0;entryDy=0;" parent="1" source="PKJmyre9kMcEaRqX343v-55" target="PKJmyre9kMcEaRqX343v-85" edge="1">
          <mxGeometry relative="1" as="geometry">
            <mxPoint x="375" y="760" as="targetPoint" />
          </mxGeometry>
        </mxCell>
        <mxCell id="VEAzBk5qKk5hibjYsEHk-10" value="Retouch Image" style="edgeLabel;html=1;align=center;verticalAlign=middle;resizable=0;points=[];fontColor=#0000FF;" vertex="1" connectable="0" parent="PKJmyre9kMcEaRqX343v-77">
          <mxGeometry x="-0.1927" y="1" relative="1" as="geometry">
            <mxPoint x="-82" as="offset" />
          </mxGeometry>
        </mxCell>
        <mxCell id="VEAzBk5qKk5hibjYsEHk-2" style="edgeStyle=orthogonalEdgeStyle;rounded=0;orthogonalLoop=1;jettySize=auto;html=1;" edge="1" parent="1" source="VEAzBk5qKk5hibjYsEHk-1" target="PKJmyre9kMcEaRqX343v-85">
          <mxGeometry relative="1" as="geometry" />
        </mxCell>
        <mxCell id="VEAzBk5qKk5hibjYsEHk-3" value="GET IMAGE" style="edgeLabel;html=1;align=center;verticalAlign=middle;resizable=0;points=[];" vertex="1" connectable="0" parent="VEAzBk5qKk5hibjYsEHk-2">
          <mxGeometry x="-0.1704" y="1" relative="1" as="geometry">
            <mxPoint as="offset" />
          </mxGeometry>
        </mxCell>
        <mxCell id="VEAzBk5qKk5hibjYsEHk-1" value="" style="html=1;dashed=0;whitespace=wrap;fillColor=#2875E2;strokeColor=#ffffff;points=[[0.005,0.63,0],[0.1,0.2,0],[0.9,0.2,0],[0.5,0,0],[0.995,0.63,0],[0.72,0.99,0],[0.5,1,0],[0.28,0.99,0]];shape=mxgraph.kubernetes.icon;prIcon=user;align=left;" vertex="1" parent="1">
          <mxGeometry x="90" y="850" width="50" height="50" as="geometry" />
        </mxCell>
        <mxCell id="PKJmyre9kMcEaRqX343v-59" value="Init SDK" style="rounded=1;whiteSpace=wrap;html=1;align=center;fontColor=#1A1A1A;" parent="1" vertex="1">
          <mxGeometry x="325" y="470" width="100" height="50" as="geometry" />
        </mxCell>
        <mxCell id="PKJmyre9kMcEaRqX343v-60" value="YES" style="edgeStyle=none;rounded=0;orthogonalLoop=1;jettySize=auto;html=1;fontColor=#0000FF;" parent="1" source="PKJmyre9kMcEaRqX343v-53" target="PKJmyre9kMcEaRqX343v-59" edge="1">
          <mxGeometry x="-0.1111" relative="1" as="geometry">
            <mxPoint as="offset" />
          </mxGeometry>
        </mxCell>
      </root>
    </mxGraphModel>
  </diagram>
</mxfile>
